<?xml version="1.0" encoding="UTF-8"?>
<svg version="1.1" xmlns="http://www.w3.org/2000/svg" width="626" height="626">
<path d="M0 0 C206.58 0 413.16 0 626 0 C626 206.58 626 413.16 626 626 C419.42 626 212.84 626 0 626 C0 419.42 0 212.84 0 0 Z " fill="#FEFEFE" transform="translate(0,0)"/>
<path d="M0 0 C3.6955793 0.21117596 4.89944643 0.89944643 7.5625 3.5625 C13.44153813 11.39507431 15.20692422 19.45827529 17 29 C17.1959375 29.88429688 17.391875 30.76859375 17.59375 31.6796875 C18.51166367 36.01277998 19.04115651 40.16223706 19.09765625 44.58984375 C19.01668604 56.12777637 19.01668604 56.12777637 24.95703125 65.58203125 C37.60387953 80.55028954 39.44002489 101.31345097 38 120 C37.01051082 127.56150818 35.22807444 134.93940448 33.43188477 142.34106445 C30.9263319 153.03538794 30.51348998 164.28789454 36.1953125 174.0546875 C47.20299507 189.32712667 63.26129962 202.8722445 79 213 C79.5775 213.38542969 80.155 213.77085937 80.75 214.16796875 C84.28400081 215.4748128 87.84189697 215.38213191 91.5625 215.375 C92.81256836 215.37367065 92.81256836 215.37367065 94.08789062 215.37231445 C105.27762565 215.16560236 115.96307853 212.45123877 126.6875 209.4375 C157.12746224 201.04344981 188.58936434 202.94671828 216.4296875 218.3828125 C221.91590919 221.56660067 227.10708662 224.93933917 232 229 C252.70646861 220.43867163 269.0459811 191.3046313 277.44140625 171.89453125 C288.39181819 145.20247253 294.25759244 111.41893001 283.15429688 83.90429688 C275.06057027 65.08767134 262.94299099 53.88272851 244 46 C230.33638135 41.61586839 215.18369973 40.79267471 202 47 C190.48594019 53.04794365 182.41833582 61.32597073 178.39453125 73.890625 C176.3926081 84.5939765 178.11912625 92.9580075 184 102 C186.25281524 105.21498536 188.61265495 108.32621646 191.046875 111.40625 C195.14238069 116.84508156 195.89738171 121.2477498 195 128 C192.95686327 131.50252011 190.90212767 133.77361702 187 135 C179.21060814 135.74897999 173.62758647 133.4239826 167.5 128.8125 C165.98481585 127.55980916 164.48453843 126.28886113 163 125 C162.31808594 124.42507812 161.63617188 123.85015625 160.93359375 123.2578125 C151.93268652 115.04954876 146.49687318 103.51198348 143 92 C142.64292969 90.9171875 142.28585937 89.834375 141.91796875 88.71875 C137.8263843 72.14348023 141.98068527 54.61474947 150.34765625 40.125 C162.00180277 21.24677395 182.63949791 8.08857183 204 3 C222.46468899 -0.48169955 242.69614904 0.63278372 260 8 C260.71816895 8.30502441 261.43633789 8.61004883 262.17626953 8.92431641 C289.10598579 20.73947597 311.08721304 42.05621109 321.875 69.625 C334.22617451 106.67852352 330.48774693 147.93690785 313.05957031 182.91113281 C299.75375929 209.14258882 281.15330052 236.445465 257 254 C256.34 254 255.68 254 255 254 C255.27674561 254.58789307 255.55349121 255.17578613 255.83862305 255.78149414 C264.16799683 273.55833664 270.50496061 290.6424295 274 310 C274.18167725 310.93577881 274.36335449 311.87155762 274.55053711 312.83569336 C276.09951005 321.56608092 276.27578959 330.08749219 276.20581055 338.92211914 C276.18739321 341.32644152 276.1853028 343.73037949 276.18554688 346.13476562 C276.18063501 347.69010745 276.17480814 349.24544671 276.16796875 350.80078125 C276.16685593 351.50616531 276.1657431 352.21154938 276.16459656 352.93830872 C276.12619472 357.02045084 275.78452736 360.95211702 275.23451233 364.99507141 C274.55782499 370.78031009 274.69275608 376.6606776 274.64990234 382.4777832 C274.63346242 384.10162813 274.60633344 385.72540436 274.56787109 387.34887695 C274.22930883 401.79076548 275.90020623 414.933182 283.8125 427.375 C294.17374525 445.98434179 283.67685085 477.98659974 278.31860352 497.44458008 C271.6295793 520.6402404 271.6295793 520.6402404 264 525 C256.63545974 527.59122713 249.17967269 528.19494455 241.4375 528.25 C240.34405273 528.2809375 240.34405273 528.2809375 239.22851562 528.3125 C234.40151141 528.34725791 231.22405632 527.57739029 227 525 C226 524 226 524 225.5625 520.9375 C226.15043678 515.64606897 228.13970644 512.61545465 232 509 C235.46604439 507.03388125 238.78529595 506.08282073 242.75 505.8125 C245.35608087 505.12168803 245.35608087 505.12168803 247.0625 501.9375 C254.3083928 485.07970859 256.87117473 462.98332897 250.18359375 445.55859375 C249.79300781 444.71425781 249.40242188 443.86992187 249 443 C248.66097656 442.24847656 248.32195312 441.49695313 247.97265625 440.72265625 C238.94730081 422.9610137 218.50792066 394.50264022 199 388 C195.50919667 401.5268629 193.63422771 416.73434634 197.5 430.375 C202.80509748 449.24636665 194.49890565 462.56619336 185.41503906 478.83935547 C182.09763366 484.65908674 178.60023453 490.35175718 175 496 C174.53255371 496.74088867 174.06510742 497.48177734 173.58349609 498.24511719 C172.25660071 500.33913128 170.91444867 502.42209027 169.5625 504.5 C169.17368652 505.10537598 168.78487305 505.71075195 168.38427734 506.33447266 C165.73441282 510.31213107 162.8957366 514.04041689 158.21044922 515.59301758 C153.28162733 516.50050003 148.18264068 516.18475993 143.1875 516.1875 C142.02412109 516.19974609 140.86074219 516.21199219 139.66210938 516.22460938 C133.72051209 516.23475439 128.59528648 516.06658026 123 514 C122.34921692 508.79373534 122.48685211 505.01412085 125.5625 500.625 C128.63960639 497.01711069 131.37317689 495.31093321 136 494 C137.68741536 493.97317305 139.37493968 493.95268045 141.0625 493.9375 C144.22822438 493.68366733 145.53206184 493.48453908 147.76171875 491.17578125 C149.39180553 488.51886815 150.71143749 485.83851913 152 483 C152.51304687 481.95457031 153.02609375 480.90914062 153.5546875 479.83203125 C155.11457491 476.58420598 156.57111549 473.30730572 158 470 C158.41765625 469.0821875 158.8353125 468.164375 159.265625 467.21875 C162.6229105 459.18017907 163.88680479 450.56110884 161.03515625 442.15625 C156.91595632 434.03724724 150.72314411 427.02845607 145 420 C135.39424702 408.14951349 126.52980645 396.35513419 120.484375 382.23046875 C119.18835826 379.83424636 119.18835826 379.83424636 116.7578125 379.0703125 C113.26202642 378.98118481 110.49216846 379.73002821 107.125 380.6875 C92.89926512 384.51283686 78.19236257 387.26417198 63.44921875 387.7265625 C60.82194258 387.76186748 60.82194258 387.76186748 59 390 C58.44998053 392.02857243 58.44998053 392.02857243 58.1496582 394.40991211 C58.01199036 395.33358078 57.87432251 396.25724945 57.73248291 397.20890808 C57.59002136 398.22149185 57.44755981 399.23407562 57.30078125 400.27734375 C57.14486511 401.33532669 56.98894897 402.39330963 56.82830811 403.48335266 C56.49172865 405.77187468 56.15881658 408.06093839 55.82913208 410.35046387 C54.95987546 416.38581287 54.06491706 422.41735121 53.171875 428.44921875 C52.99169327 429.67061554 52.81151154 430.89201233 52.62586975 432.15042114 C50.62389212 445.66003421 48.41380546 459.13382582 46.17114258 472.60522461 C46.03170227 473.44764206 45.89226196 474.29005951 45.74859619 475.15800476 C45.49340833 476.69834847 45.23618633 478.23835758 44.97625732 479.77790833 C44.24473312 484.19133261 43.68186051 488.59926073 43.23126221 493.05038452 C42.93317494 495.56335691 42.35892829 497.93685258 41.6875 500.375 C40.67336028 504.17189993 39.80042078 507.9530675 39.08984375 511.81640625 C38.9297583 512.66090332 38.76967285 513.50540039 38.60473633 514.37548828 C38.29080857 516.0520063 37.99184618 517.73141301 37.7097168 519.41357422 C36.70110812 524.68928965 35.39798077 527.56365722 31 531 C25.87571138 532.70809621 20.48927073 532.22680315 15.125 532.25 C13.94035156 532.270625 12.75570312 532.29125 11.53515625 532.3125 C10.39175781 532.31765625 9.24835938 532.3228125 8.0703125 532.328125 C7.02633301 532.3374707 5.98235352 532.34681641 4.90673828 532.35644531 C1.54944853 531.94475011 -0.3142999 531.03154501 -3 529 C-4.36914551 525.23484985 -4.08411139 523.28202055 -2.9375 519.4375 C-0.27480617 514.71336579 2.47482618 511.71363608 7.875 510.1875 C8.926875 510.0946875 8.926875 510.0946875 10 510 C10.48108275 508.58398286 10.95978141 507.16715563 11.4375 505.75 C11.70433594 504.96109375 11.97117188 504.1721875 12.24609375 503.359375 C14.41928616 496.55829615 14.33022498 489.91435009 14.375 482.8125 C14.38234161 481.75409912 14.38234161 481.75409912 14.38983154 480.67431641 C14.42697338 467.50330605 13.2365983 454.56319143 11.625 441.5 C11.51403992 440.58175446 11.40307983 439.66350891 11.28875732 438.71743774 C10.96888055 436.11177116 10.63315059 433.50881968 10.2890625 430.90625 C10.18998596 430.11925217 10.09090942 429.33225433 9.98883057 428.52140808 C9.730188 426.66963208 9.37473769 424.83181386 9 423 C8.34 422.67 7.68 422.34 7 422 C7.01675781 423.0209375 7.03351563 424.041875 7.05078125 425.09375 C7.00439751 428.66173018 6.6852137 431.97149312 6.1875 435.5 C5.08240118 443.79285 4.24807006 452.11168873 3.4375 460.4375 C3.37056946 461.11952484 3.30363892 461.80154968 3.23468018 462.50424194 C2.49290331 470.10323121 1.85694563 477.68207191 1.5625 485.3125 C1.26041101 491.22740247 0.4229751 496.84593742 -0.8125 502.625 C-0.96581787 503.36016846 -1.11913574 504.09533691 -1.27709961 504.8527832 C-2.94775862 512.05806965 -5.72156582 517.70422925 -12 522 C-14.54581498 523.27290749 -16.35172078 523.12943325 -19.19921875 523.1328125 C-20.24400391 523.13410156 -21.28878906 523.13539063 -22.36523438 523.13671875 C-23.46158203 523.13285156 -24.55792969 523.12898437 -25.6875 523.125 C-26.76451172 523.12886719 -27.84152344 523.13273438 -28.95117188 523.13671875 C-43.88158955 523.11841045 -43.88158955 523.11841045 -47 520 C-47.61582046 513.59546725 -45.91053626 509.94541007 -42.5 504.6875 C-38.98871517 502.31738274 -35.81872642 502.69927975 -31.65625 502.859375 C-28.59394993 501.86863086 -28.23657617 501.3635456 -26.6796875 498.6640625 C-24.38915383 493.39513315 -24.48422871 488.28548769 -24.625 482.625 C-24.62628906 481.64789062 -24.62757813 480.67078125 -24.62890625 479.6640625 C-24.69645058 474.02035847 -25.30295054 468.79388871 -26.52294922 463.28808594 C-27.21182943 459.9839993 -27.46457094 456.67308737 -27.75 453.3125 C-30.77751705 423.22061702 -37.92229896 391.08595792 -49 363 C-49.30615234 362.20094238 -49.61230469 361.40188477 -49.92773438 360.57861328 C-55.07775598 347.17629515 -60.72554092 334.08761306 -66.75 321.0625 C-87.12272137 276.95179433 -86.05882021 237.26986633 -71.2109375 191.4765625 C-66.99830236 178.17042919 -63.09347736 162.32757377 -69.671875 149.078125 C-73.76107065 142.67973651 -77.56463451 138.34801015 -85 136 C-86.85625 135.5978125 -86.85625 135.5978125 -88.75 135.1875 C-101.65196954 132.05522994 -111.82215744 122.7529887 -118.61254883 111.63037109 C-124.36870726 101.22666707 -123.83321269 90.58806571 -123 79 C-116.94234231 75.8745064 -110.93565443 72.93050734 -104.5625 70.5 C-98.58463913 68.03898455 -95.95411253 65.0897486 -92.5078125 59.640625 C-85.01141064 48.24056687 -74.55508262 42.46906147 -61.5 39.25 C-50.79310761 37.1294791 -39.85292166 37.03628077 -29.20703125 39.5390625 C-24.18731907 40.58742717 -19.77665884 40.94755138 -15.1875 38.5 C-9.43728752 31.92832859 -7.81107977 24.05233192 -5.9375 15.75 C-5.45557009 13.61774776 -4.96501447 11.48742229 -4.46484375 9.359375 C-4.254646 8.42577148 -4.04444824 7.49216797 -3.82788086 6.53027344 C-2.9525308 3.85491868 -1.80759166 2.13689983 0 0 Z " fill="#0B0B0B" transform="translate(210,47)"/>
<path d="M0 0 C7.45935131 4.36352035 7.45935131 4.36352035 8.7265625 8.19921875 C8.81679687 8.79347656 8.90703125 9.38773438 9 10 C7.75482035 11.13033298 6.50363348 12.25405036 5.25 13.375 C4.55390625 14.00148438 3.8578125 14.62796875 3.140625 15.2734375 C-0.80980618 18.45973418 -3.8044977 19.44361458 -8.97265625 19.328125 C-12.26733971 18.79488143 -14.42827505 17.03345693 -17 15 C-17.99 14.34 -18.98 13.68 -20 13 C-17.89518955 6.86096952 -14.61349036 2.66317372 -8.8515625 -0.328125 C-5.48667134 -1.54914036 -3.37349019 -1.06531269 0 0 Z " fill="#F1F1F1" transform="translate(148,108)"/>
<path d="M0 0 C0.33 0 0.66 0 1 0 C1.01981934 0.71019287 1.03963867 1.42038574 1.06005859 2.15209961 C1.15615196 5.4142304 1.2654855 8.67579328 1.375 11.9375 C1.4059375 13.05447266 1.436875 14.17144531 1.46875 15.32226562 C1.6484698 20.42930326 1.92351704 25.22225505 3.1640625 30.19140625 C3.57785156 32.07666016 3.57785156 32.07666016 4 34 C3.34 34.66 2.68 35.32 2 36 C1.514136 34.48129302 1.03668799 32.95989301 0.5625 31.4375 C0.29566406 30.59058594 0.02882813 29.74367188 -0.24609375 28.87109375 C-1.82664315 22.85190304 -2.18173183 16.93347476 -2.1875 10.75 C-2.19974609 10.04359375 -2.21199219 9.3371875 -2.22460938 8.609375 C-2.23528719 4.85078503 -2.13760577 3.20640866 0 0 Z " fill="#2D2D2D" transform="translate(483,426)"/>
<path d="M0 0 C0.65935547 0.87978516 0.65935547 0.87978516 1.33203125 1.77734375 C2.32539892 3.10105852 3.33742785 4.41156692 4.38671875 5.69140625 C9.82721255 13.51722165 8.41611808 22.91013167 8 32 C7.67 32 7.34 32 7 32 C6.92523438 30.82824219 6.85046875 29.65648437 6.7734375 28.44921875 C6.07617059 19.58855091 5.21041847 12.64744122 0.14453125 5.06640625 C-0.23316406 4.38449219 -0.61085938 3.70257813 -1 3 C-0.67 2.01 -0.34 1.02 0 0 Z " fill="#1B1B1B" transform="translate(489,468)"/>
<path d="M0 0 C0.87720703 -0.01224609 1.75441406 -0.02449219 2.65820312 -0.03710938 C7.90294588 -0.04887768 12.22461317 0.47452542 17.1875 2.1875 C14.50951311 4.00853108 13.34654007 4.21030575 10.08203125 3.7421875 C5.06535798 3.02767636 0.20534515 3.17193257 -4.84765625 3.31445312 C-8.72916782 3.37305499 -10.50077138 3.39531908 -13.8125 1.1875 C-9.21110427 -0.12391414 -4.75296373 0.00344667 0 0 Z " fill="#141414" transform="translate(433.8125,86.8125)"/>
<path d="M0 0 C0.33 0 0.66 0 1 0 C1.49644996 9.70835475 0.01172782 18.56403855 -2 28 C-4.67135401 24.16116535 -3.84057805 20.60104357 -3.125 16.25 C-3.02058594 15.55261719 -2.91617187 14.85523438 -2.80859375 14.13671875 C-2.55032364 12.42274441 -2.27667048 10.7111005 -2 9 C-1.34 9 -0.68 9 0 9 C0 6.03 0 3.06 0 0 Z " fill="#1C1C1C" transform="translate(500,168)"/>
<path d="M0 0 C0.94359375 0.23396484 0.94359375 0.23396484 1.90625 0.47265625 C7.68856288 1.78760993 12.16754686 2.08008392 18 1 C18 1.66 18 2.32 18 3 C14.31876467 5.35599061 11.30046079 5.35837173 7 5 C4.23308444 4.16168758 1.67187471 3.12499988 -1 2 C-0.67 1.34 -0.34 0.68 0 0 Z " fill="#181818" transform="translate(383,177)"/>
<path d="M0 0 C0 0.99 0 1.98 0 3 C-2.0379507 3.53518883 -4.08059009 4.05254093 -6.125 4.5625 C-7.26195312 4.85253906 -8.39890625 5.14257812 -9.5703125 5.44140625 C-13.06489384 6.01056927 -15.57203347 5.78666101 -19 5 C-15.73809743 2.82539828 -13.30548772 2.22352091 -9.5 1.375 C-8.3553125 1.11460938 -7.210625 0.85421875 -6.03125 0.5859375 C-3 0 -3 0 0 0 Z " fill="#242424" transform="translate(423,49)"/>
<path d="M0 0 C3.62806974 3.49895693 6.80523484 7.10914328 9.875 11.125 C10.67679687 12.15882813 11.47859375 13.19265625 12.3046875 14.2578125 C12.86414063 15.16273438 13.42359375 16.06765625 14 17 C13.67 17.99 13.34 18.98 13 20 C10.04193716 16.32277509 7.12201993 12.61988874 4.25 8.875 C3.05117188 7.32425781 3.05117188 7.32425781 1.828125 5.7421875 C0 3 0 3 0 0 Z " fill="#1B1B1B" transform="translate(441,460)"/>
<path d="M0 0 C0 0.33 0 0.66 0 1 C-0.62648438 1.19335938 -1.25296875 1.38671875 -1.8984375 1.5859375 C-2.71570313 1.84632813 -3.53296875 2.10671875 -4.375 2.375 C-5.59316406 2.75785156 -5.59316406 2.75785156 -6.8359375 3.1484375 C-9.16459185 3.89854283 -9.16459185 3.89854283 -11 6 C-11.99 6 -12.98 6 -14 6 C-14.33 6.66 -14.66 7.32 -15 8 C-14.79522646 4.31407635 -14.19363947 3.17947073 -11.4375 0.625 C-6.94592095 -1.49829191 -4.79156521 -0.99135832 0 0 Z " fill="#171717" transform="translate(454,555)"/>
<path d="M0 0 C1.2421875 1.515625 1.2421875 1.515625 2 4 C0.8262169 6.77225155 -0.36902276 9.17180596 -1.875 11.75 C-2.26558594 12.44738281 -2.65617187 13.14476562 -3.05859375 13.86328125 C-4.02480413 15.58360705 -5.0105736 17.29292098 -6 19 C-7.3058334 15.07871478 -6.38030356 13.02168909 -4.59960938 9.31640625 C-4.25736328 8.63449219 -3.91511719 7.95257812 -3.5625 7.25 C-3.05493164 6.20392578 -3.05493164 6.20392578 -2.53710938 5.13671875 C-1.70193542 3.41931879 -0.85234576 1.70894262 0 0 Z " fill="#1D1D1D" transform="translate(368,517)"/>
<path d="M0 0 C3.34123474 1.4533622 5.56541965 3.29595516 8.125 5.875 C8.80820312 6.55304688 9.49140625 7.23109375 10.1953125 7.9296875 C11.90180904 9.88735669 12.96942541 11.6307409 14 14 C11 14 11 14 8.80859375 11.953125 C7.63490234 10.61507813 7.63490234 10.61507813 6.4375 9.25 C5.65246094 8.36828125 4.86742187 7.4865625 4.05859375 6.578125 C2.32793912 4.41070175 1.09301712 2.52870987 0 0 Z " fill="#181818" transform="translate(426,445)"/>
<path d="M0 0 C2.33902342 2.33902342 2.91286023 4.14145971 4 7.25 C4.34546875 8.23097656 4.6909375 9.21195312 5.046875 10.22265625 C6.04901903 13.14283825 7.04752061 16.06318853 8 19 C5 18 5 18 3.61328125 15.48828125 C3.18402344 14.44027344 2.75476563 13.39226562 2.3125 12.3125 C1.87550781 11.27738281 1.43851563 10.24226563 0.98828125 9.17578125 C-0.02259693 5.92738615 -0.18740833 3.37841498 0 0 Z " fill="#151515" transform="translate(134,341)"/>
<path d="M0 0 C0.33 0 0.66 0 1 0 C3.13130915 16.28598186 3.13130915 16.28598186 -2 23 C-2.99 23.33 -3.98 23.66 -5 24 C-4.71125 23.29875 -4.4225 22.5975 -4.125 21.875 C-2.03570583 16.53569268 -0.72728301 11.87895581 -0.375 6.125 C-0.30023438 4.97257812 -0.22546875 3.82015625 -0.1484375 2.6328125 C-0.09945313 1.76398438 -0.05046875 0.89515625 0 0 Z " fill="#181818" transform="translate(407,484)"/>
<path d="M0 0 C0.99 0 1.98 0 3 0 C3 2.31 3 4.62 3 7 C5.97 7.495 5.97 7.495 9 8 C9 8.99 9 9.98 9 11 C2.25 9.25 2.25 9.25 0 7 C-0.125 3.375 -0.125 3.375 0 0 Z " fill="#303030" transform="translate(436,564)"/>
<path d="M0 0 C1.5003479 0.07069702 1.5003479 0.07069702 3.03100586 0.14282227 C4.1105957 0.19116211 5.19018555 0.23950195 6.30249023 0.28930664 C7.43879883 0.34538086 8.57510742 0.40145508 9.74584961 0.45922852 C11.45611328 0.53753906 11.45611328 0.53753906 13.20092773 0.61743164 C16.02864984 0.74757785 18.85605961 0.8825573 21.68334961 1.02172852 C21.68334961 1.35172852 21.68334961 1.68172852 21.68334961 2.02172852 C18.08005072 2.24746446 14.47580262 2.44931976 10.87084961 2.64672852 C9.84668945 2.71118164 8.8225293 2.77563477 7.76733398 2.84204102 C6.78442383 2.89360352 5.80151367 2.94516602 4.78881836 2.99829102 C3.88284912 3.05065918 2.97687988 3.10302734 2.04345703 3.15698242 C-0.31665039 3.02172852 -0.31665039 3.02172852 -3.31665039 1.02172852 C-2.31665039 0.02172852 -2.31665039 0.02172852 0 0 Z " fill="#212121" transform="translate(212.316650390625,575.978271484375)"/>
<path d="M0 0 C0.33 0 0.66 0 1 0 C1.02722517 2.20826378 1.04649729 4.41662638 1.0625 6.625 C1.07410156 7.85476563 1.08570313 9.08453125 1.09765625 10.3515625 C1.00863924 13.67723791 0.63686087 16.74047588 0 20 C-0.66 20 -1.32 20 -2 20 C-1.85780436 17.79142945 -1.71108153 15.58315013 -1.5625 13.375 C-1.48128906 12.14523437 -1.40007812 10.91546875 -1.31640625 9.6484375 C-1.03336056 6.38467612 -0.58961047 3.22056141 0 0 Z " fill="#121212" transform="translate(260,476)"/>
<path d="M0 0 C1.66666667 1.66666667 3.33333333 3.33333333 5 5 C5.9075 5.845625 6.815 6.69125 7.75 7.5625 C9.88232611 9.87251995 10.66021092 10.94189832 11 14 C10.01 14.495 10.01 14.495 9 15 C7.49105621 13.06891122 5.99288466 11.13093994 4.5 9.1875 C4.07074219 8.64029297 3.64148438 8.09308594 3.19921875 7.52929688 C0 3.33984375 0 3.33984375 0 0 Z " fill="#1C1C1C" transform="translate(353,461)"/>
<path d="M0 0 C0.33 0 0.66 0 1 0 C2.5197276 6.3552245 1.1663492 10.91708727 -1 17 C-1.66 17 -2.32 17 -3 17 C-2.36934845 11.2190275 -1.34844868 5.6556294 0 0 Z " fill="#191919" transform="translate(489,527)"/>
<path d="M0 0 C0.66 0 1.32 0 2 0 C0.58707905 4.8274799 -1.42974154 8.7162359 -4 13 C-4.99 12.67 -5.98 12.34 -7 12 C-5.88407791 9.99492073 -4.75701288 7.99603904 -3.625 6 C-2.68527344 4.329375 -2.68527344 4.329375 -1.7265625 2.625 C-1.15679687 1.75875 -0.58703125 0.8925 0 0 Z " fill="#171717" transform="translate(486,223)"/>
<path d="M0 0 C4.50343911 0.5112012 6.87525426 2.17521358 10.3125 5.0625 C11.19550781 5.79597656 12.07851563 6.52945313 12.98828125 7.28515625 C13.65214844 7.85105469 14.31601562 8.41695312 15 9 C14.34 9.66 13.68 10.32 13 11 C11.39400651 9.73147606 9.79027425 8.460089 8.1875 7.1875 C7.29417969 6.47980469 6.40085937 5.77210937 5.48046875 5.04296875 C3.52923089 3.43588623 1.73725024 1.82959577 0 0 Z " fill="#191919" transform="translate(489,67)"/>
<path d="M0 0 C0.66 0 1.32 0 2 0 C1.43174347 5.54050113 -0.62886517 10.03715966 -3 15 C-4.17266191 11.48201427 -3.73410958 10.39202021 -2.625 6.9375 C-2.34914063 6.05964844 -2.07328125 5.18179688 -1.7890625 4.27734375 C-1 2 -1 2 0 0 Z " fill="#181818" transform="translate(483,552)"/>
<path d="M0 0 C0 0.66 0 1.32 0 2 C-3.171738 3.585869 -6.63513822 3.37866445 -10.125 3.5625 C-10.87910156 3.60568359 -11.63320313 3.64886719 -12.41015625 3.69335938 C-14.27321888 3.7994832 -16.13658524 3.90025001 -18 4 C-15.03095016 2.36427347 -12.32420253 1.51349012 -9 0.875 C-7.7315625 0.62363281 -7.7315625 0.62363281 -6.4375 0.3671875 C-4 0 -4 0 0 0 Z " fill="#181818" transform="translate(316,426)"/>
<path d="M0 0 C-3.07949516 2.05299677 -4.42516968 2.38826122 -8 2.75 C-8.86625 2.84796875 -9.7325 2.9459375 -10.625 3.046875 C-13 3 -13 3 -16 1 C-10.26696495 -0.57300962 -5.84340558 -1.24327778 0 0 Z " fill="#262626" transform="translate(349,256)"/>
<path d="M0 0 C0 0.66 0 1.32 0 2 C-5.45769811 2.11138159 -10.61509359 1.91657981 -16 1 C-16 0.67 -16 0.34 -16 0 C-10.31302429 -0.91397824 -5.68697571 -0.91397824 0 0 Z " fill="#1D1D1D" transform="translate(176,86)"/>
<path d="M0 0 C2.09797355 2.09797355 2.96787972 3.75609656 4.1875 6.4375 C4.55230469 7.21996094 4.91710937 8.00242187 5.29296875 8.80859375 C6 11 6 11 5 14 C1.20937727 9.17557107 -0.28418033 6.25196725 0 0 Z " fill="#1B1B1B" transform="translate(466,305)"/>
<path d="M0 0 C0.66 0.66 1.32 1.32 2 2 C1.01 2.33 0.02 2.66 -1 3 C-1.33 3.99 -1.66 4.98 -2 6 C-4.31 6.33 -6.62 6.66 -9 7 C-6.24479785 4.04070881 -3.53372712 1.96318174 0 0 Z " fill="#1B1B1B" transform="translate(389,60)"/>
<path d="M0 0 C0.99 0.33 1.98 0.66 3 1 C3.05395478 2.62463842 3.09277195 4.24978541 3.125 5.875 C3.14820313 6.77992188 3.17140625 7.68484375 3.1953125 8.6171875 C3 11 3 11 1 13 C-0.00496852 9.98509443 -0.10335303 7.95818308 -0.0625 4.8125 C-0.05347656 3.91144531 -0.04445313 3.01039063 -0.03515625 2.08203125 C-0.02355469 1.39496094 -0.01195312 0.70789063 0 0 Z " fill="#131313" transform="translate(402,164)"/>
<path d="M0 0 C0.66 0 1.32 0 2 0 C3.98 3.63 5.96 7.26 8 11 C7.01 11 6.02 11 5 11 C3.61328125 9.35546875 3.61328125 9.35546875 2.3125 7.1875 C1.87550781 6.47980469 1.43851562 5.77210938 0.98828125 5.04296875 C0 3 0 3 0 0 Z " fill="#1E1E1E" transform="translate(387,140)"/>
<path d="M0 0 C0.78375 0.04125 1.5675 0.0825 2.375 0.125 C1.32625002 2.74687494 0.72568687 3.91871361 -1.75 5.375 C-2.36875 5.6225 -2.9875 5.87 -3.625 6.125 C-4.25 4.25 -4.25 4.25 -4.625 2.125 C-2.625 0.125 -2.625 0.125 0 0 Z " fill="#CCCCCC" transform="translate(94.625,124.875)"/>
<path d="M0 0 C1.12894876 0.93274109 2.25300876 1.87140122 3.375 2.8125 C4.00148437 3.33457031 4.62796875 3.85664063 5.2734375 4.39453125 C7 6 7 6 9 9 C6 9 6 9 4.17578125 7.46875 C3.56089844 6.8190625 2.94601563 6.169375 2.3125 5.5 C1.68988281 4.8503125 1.06726563 4.200625 0.42578125 3.53125 C-0.04472656 3.0259375 -0.51523438 2.520625 -1 2 C-0.67 1.34 -0.34 0.68 0 0 Z " fill="#282828" transform="translate(251,228)"/>
<path d="M0 0 C-0.33 0.99 -0.66 1.98 -1 3 C-3.28515625 3.94921875 -3.28515625 3.94921875 -6.0625 4.6875 C-7.44115234 5.06455078 -7.44115234 5.06455078 -8.84765625 5.44921875 C-9.55792969 5.63097656 -10.26820312 5.81273438 -11 6 C-11.66 5.34 -12.32 4.68 -13 4 C-11.2097939 3.32942113 -9.41778511 2.6636531 -7.625 2 C-6.62726563 1.62875 -5.62953125 1.2575 -4.6015625 0.875 C-2 0 -2 0 0 0 Z " fill="#2A2A2A" transform="translate(109,117)"/>
<path d="M0 0 C0.33 0 0.66 0 1 0 C1 3.96 1 7.92 1 12 C0.34 12 -0.32 12 -1 12 C-1.33 13.32 -1.66 14.64 -2 16 C-1.85764543 14.27054347 -1.71095618 12.54144346 -1.5625 10.8125 C-1.48128906 9.84957031 -1.40007812 8.88664063 -1.31640625 7.89453125 C-1.02333849 5.21350398 -0.57296246 2.6337014 0 0 Z " fill="#171717" transform="translate(248,548)"/>
<path d="M0 0 C1.17369141 0.28617188 1.17369141 0.28617188 2.37109375 0.578125 C3.15613281 0.75859375 3.94117188 0.9390625 4.75 1.125 C6.80859375 1.828125 6.80859375 1.828125 8.80859375 3.828125 C5.08399075 5.06965933 4.33107106 4.30265039 0.80859375 2.828125 C-1.18383875 2.45219434 -3.18327365 2.10832955 -5.19140625 1.828125 C-2.19140625 -0.171875 -2.19140625 -0.171875 0 0 Z " fill="#222222" transform="translate(124.19140625,180.171875)"/>
<path d="M0 0 C3.44216672 2.6598561 3.99504674 5.90288286 5 10 C4.01 10.495 4.01 10.495 3 11 C0 4.5 0 4.5 0 0 Z " fill="#1B1B1B" transform="translate(142,361)"/>
<path d="M0 0 C3.15330554 0.60694155 5.18888867 1.6416665 7.75 3.5625 C8.67039062 4.24505859 8.67039062 4.24505859 9.609375 4.94140625 C10.29773438 5.46541016 10.29773438 5.46541016 11 6 C10.34 6.66 9.68 7.32 9 8 C7.49712782 6.85793642 5.99776716 5.71125043 4.5 4.5625 C3.6646875 3.92441406 2.829375 3.28632813 1.96875 2.62890625 C1.3190625 2.09136719 0.669375 1.55382812 0 1 C0 0.67 0 0.34 0 0 Z " fill="#1B1B1B" transform="translate(272,250)"/>
<path d="M0 0 C2.48092261 2.91238742 3.70390197 5.15072555 4 9 C3.01 10.485 3.01 10.485 2 12 C1.01 8.37 0.02 4.74 -1 1 C-0.67 0.67 -0.34 0.34 0 0 Z " fill="#262626" transform="translate(241,125)"/>
<path d="M0 0 C1.8871875 0.061875 1.8871875 0.061875 3.8125 0.125 C3.8125 1.115 3.8125 2.105 3.8125 3.125 C0.1825 2.795 -3.4475 2.465 -7.1875 2.125 C-4.09861478 0.06574319 -3.47814073 -0.1140374 0 0 Z " fill="#252525" transform="translate(172.1875,566.875)"/>
<path d="M0 0 C0.33 0 0.66 0 1 0 C1.22304441 1.74818591 1.4278645 3.49870323 1.625 5.25 C1.74101563 6.22453125 1.85703125 7.1990625 1.9765625 8.203125 C2.00112537 11.13429393 1.5312717 12.54528964 0 15 C-0.33 15 -0.66 15 -1 15 C-0.67 10.05 -0.34 5.1 0 0 Z " fill="#1A1A1A" transform="translate(536,170)"/>
<path d="M0 0 C2.52349243 3.12432397 4.27256146 6.38060496 6 10 C5.01 10 4.02 10 3 10 C0.39749195 6.62637846 -0.36265043 4.23092172 0 0 Z " fill="#1E1E1E" transform="translate(92,154)"/>
<path d="M0 0 C2.09350689 3.4019487 2.17942163 6.05272412 2 10 C1.34 10 0.68 10 0 10 C-1.49106457 7.01787087 -1.11941467 4.28390342 -1 1 C-0.67 0.67 -0.34 0.34 0 0 Z " fill="#232323" transform="translate(537,143)"/>
<path d="M0 0 C2.1640625 0.77734375 2.1640625 0.77734375 4.625 1.9375 C5.44226563 2.31777344 6.25953125 2.69804688 7.1015625 3.08984375 C7.72804688 3.39019531 8.35453125 3.69054688 9 4 C8.67 4.66 8.34 5.32 8 6 C4.08788267 4.84414715 1.1254959 3.64465038 -2 1 C-1.34 0.67 -0.68 0.34 0 0 Z " fill="#181818" transform="translate(474,57)"/>
<path d="M0 0 C2 2 2 2 2.1953125 3.9453125 C2.13020833 5.96354167 2.06510417 7.98177083 2 10 C1.34 10 0.68 10 0 10 C-0.74926071 6.33694766 -1.2380014 3.57644848 0 0 Z " fill="#262626" transform="translate(207,566)"/>
<path d="M0 0 C3.33557632 2.9905167 5.15083921 5.93184627 7 10 C6.01 10.495 6.01 10.495 5 11 C4.15504811 9.92570402 3.32445142 8.84010798 2.5 7.75 C2.0359375 7.14671875 1.571875 6.5434375 1.09375 5.921875 C0 4 0 4 0 0 Z " fill="#1B1B1B" transform="translate(341,445)"/>
<path d="M0 0 C0.33 0 0.66 0 1 0 C1.87890625 6.15234375 1.87890625 6.15234375 2 8 C1.67 8.33 1.34 8.66 1 9 C0.76807135 10.51469448 0.58784762 12.03754562 0.4375 13.5625 C0.35371094 14.38878906 0.26992188 15.21507812 0.18359375 16.06640625 C0.12300781 16.70449219 0.06242187 17.34257812 0 18 C-0.33 18 -0.66 18 -1 18 C-1.18451025 5.33029613 -1.18451025 5.33029613 0 0 Z " fill="#1B1B1B" transform="translate(483,406)"/>
<path d="M0 0 C0.66 0 1.32 0 2 0 C0.7508258 3.45925163 -0.67527795 6.14693203 -3 9 C-3.66 8.67 -4.32 8.34 -5 8 C-1.125 1.125 -1.125 1.125 0 0 Z " fill="#212121" transform="translate(464,256)"/>
<path d="M0 0 C0.66 0 1.32 0 2 0 C0.7580393 3.43927579 -0.55740284 6.25207819 -3 9 C-3.66 9 -4.32 9 -5 9 C-3.7580393 5.56072421 -2.44259716 2.74792181 0 0 Z " fill="#181818" transform="translate(477,239)"/>
<path d="M0 0 C2.72869407 0.03287583 5.2966618 0.56397771 8 1 C8 1.33 8 1.66 8 2 C6.93458984 2.18175781 6.93458984 2.18175781 5.84765625 2.3671875 C4.92855469 2.53476562 4.00945312 2.70234375 3.0625 2.875 C2.14597656 3.03742187 1.22945312 3.19984375 0.28515625 3.3671875 C-0.46894531 3.57601562 -1.22304687 3.78484375 -2 4 C-2.33 4.66 -2.66 5.32 -3 6 C-2.42655063 3.13275314 -2.1385485 2.1385485 0 0 Z " fill="#1E1E1E" transform="translate(170,550)"/>
<path d="M0 0 C0.33 0.99 0.66 1.98 1 3 C-0.65 4.65 -2.3 6.3 -4 8 C-4.99 7.67 -5.98 7.34 -7 7 C-4.69 4.69 -2.38 2.38 0 0 Z " fill="#1B1B1B" transform="translate(375,70)"/>
<path d="M0 0 C2.625 0.375 2.625 0.375 5 1 C5.33 2.32 5.66 3.64 6 5 C3.525 4.01 3.525 4.01 1 3 C0.34 3.66 -0.32 4.32 -1 5 C-1.33 4.01 -1.66 3.02 -2 2 C-1.34 1.34 -0.68 0.68 0 0 Z " fill="#171717" transform="translate(210,47)"/>
<path d="M0 0 C3 2 3 2 3.8125 5 C3.874375 5.99 3.93625 6.98 4 8 C3.34 8.66 2.68 9.32 2 10 C0.39644899 6.49223216 -0.22036864 3.85645121 0 0 Z " fill="#262626" transform="translate(483,452)"/>
<path d="M0 0 C0.99 0.33 1.98 0.66 3 1 C3.625 3.3125 3.625 3.3125 4 6 C3.01 7.485 3.01 7.485 2 9 C0.50178941 5.62902617 0 3.79557881 0 0 Z " fill="#222222" transform="translate(476,334)"/>
<path d="M0 0 C0.66 0.33 1.32 0.66 2 1 C1.67 3.31 1.34 5.62 1 8 C0.01 8 -0.98 8 -2 8 C-1.34 5.36 -0.68 2.72 0 0 Z " fill="#1C1C1C" transform="translate(143,223)"/>
<path d="M0 0 C0.66 0 1.32 0 2 0 C3.5078125 1.53125 3.5078125 1.53125 5.125 3.5 C5.66382813 4.1496875 6.20265625 4.799375 6.7578125 5.46875 C7.16773438 5.9740625 7.57765625 6.479375 8 7 C7.67 7.66 7.34 8.32 7 9 C5.82737096 7.88121617 4.66204862 6.75476949 3.5 5.625 C2.8503125 4.99851563 2.200625 4.37203125 1.53125 3.7265625 C0 2 0 2 0 0 Z " fill="#131313" transform="translate(369,166)"/>
<path d="M0 0 C0.66 0.33 1.32 0.66 2 1 C0.79618552 3.49361571 -0.45428722 5.68143083 -2 8 C-2.66 8 -3.32 8 -4 8 C-2.87548273 5.0280615 -1.77706209 2.66559313 0 0 Z " fill="#212121" transform="translate(364,82)"/>
<path d="M0 0 C-2.39509338 2.89932357 -4.31245243 3.50168276 -8 4 C-8.33 3.34 -8.66 2.68 -9 2 C-3.375 -1.125 -3.375 -1.125 0 0 Z " fill="#1A1A1A" transform="translate(400,57)"/>
<path d="M0 0 C0.66 0.33 1.32 0.66 2 1 C1.34 3.31 0.68 5.62 0 8 C-0.99 7.67 -1.98 7.34 -3 7 C-2.01 4.69 -1.02 2.38 0 0 Z " fill="#242424" transform="translate(223,548)"/>
<path d="M0 0 C0.33 0 0.66 0 1 0 C0.67 2.64 0.34 5.28 0 8 C-0.99 8 -1.98 8 -3 8 C-1.125 2.25 -1.125 2.25 0 0 Z " fill="#1D1D1D" transform="translate(133,262)"/>
<path d="M0 0 C0.66 0.33 1.32 0.66 2 1 C1.67 2.98 1.34 4.96 1 7 C0.01 7 -0.98 7 -2 7 C-1.34 4.69 -0.68 2.38 0 0 Z " fill="#252525" transform="translate(494,200)"/>
<path d="M0 0 C4.455 0.99 4.455 0.99 9 2 C5 4 5 4 1.75 3.125 C0.8425 2.75375 -0.065 2.3825 -1 2 C-0.67 1.34 -0.34 0.68 0 0 Z " fill="#1F1F1F" transform="translate(383,177)"/>
<path d="M0 0 C0.33 0 0.66 0 1 0 C1 3.96 1 7.92 1 12 C0.01 12 -0.98 12 -2 12 C-2 11.01 -2 10.02 -2 9 C-1.34 9 -0.68 9 0 9 C0 6.03 0 3.06 0 0 Z " fill="#232323" transform="translate(500,168)"/>
<path d="M0 0 C1.98 0 3.96 0 6 0 C6 0.99 6 1.98 6 3 C3.69 2.67 1.38 2.34 -1 2 C-0.67 1.34 -0.34 0.68 0 0 Z " fill="#272727" transform="translate(210,576)"/>
<path d="M0 0 C0.66 0 1.32 0 2 0 C2 2.31 2 4.62 2 7 C1.01 7 0.02 7 -1 7 C-0.67 4.69 -0.34 2.38 0 0 Z " fill="#212121" transform="translate(129,275)"/>
<path d="M0 0 C4.42857143 5.14285714 4.42857143 5.14285714 5 9 C4.34 9 3.68 9 3 9 C0.56839395 5.63316085 0 4.26649636 0 0 Z " fill="#161616" transform="translate(138,189)"/>
<path d="M0 0 C0.99 0.99 1.98 1.98 3 3 C-1.75 7 -1.75 7 -4 7 C-3.34 5.68 -2.68 4.36 -2 3 C-1.34 3 -0.68 3 0 3 C0 2.01 0 1.02 0 0 Z " fill="#171717" transform="translate(400,97)"/>
</svg>
